<svg width="51" height="47" viewBox="0 0 51 47" fill="none" xmlns="http://www.w3.org/2000/svg">
<g clip-path="url(#clip0_414_3)">
<rect width="47" height="51" transform="matrix(0 -1 1 0 0 47)" fill="white"/>
<path d="M9.88533 10.61L6.87833 32H2.10433L5.11133 10.61H9.88533ZM16.5193 18.825L16.0233 22.421H7.96333L8.45933 18.825H16.5193ZM22.0683 10.61L19.0613 32H14.3493L17.3563 10.61H22.0683ZM48.0323 10.61C48.6109 10.61 49.0449 10.7753 49.3343 11.106C49.6236 11.4367 49.7373 11.881 49.6753 12.439L47.7223 32H43.3203L45.1493 14.268H44.6223L39.3523 27.66C39.1869 28.156 38.9493 28.5177 38.6393 28.745C38.3293 28.9723 37.9056 29.086 37.3683 29.086H34.4543C33.9376 29.086 33.5243 28.9517 33.2143 28.683C32.9043 28.3937 32.7183 28.001 32.6563 27.505L31.0443 14.268H30.4863L27.3553 32H22.9843L26.5493 12.253C26.6526 11.695 26.8386 11.2817 27.1073 11.013C27.3966 10.7443 27.8203 10.61 28.3783 10.61H32.7493C33.2453 10.61 33.6379 10.7547 33.9273 11.044C34.2166 11.3127 34.3819 11.7053 34.4233 12.222L35.7563 22.948C35.8183 23.4647 35.8596 23.9813 35.8803 24.498C35.9009 24.994 35.9113 25.5003 35.9113 26.017H36.3763C36.5416 25.459 36.6966 24.9423 36.8413 24.467C37.0066 23.971 37.1823 23.4853 37.3683 23.01L41.5533 12.036C41.7186 11.54 41.9563 11.1783 42.2663 10.951C42.5969 10.7237 43.0103 10.61 43.5063 10.61H48.0323Z" fill="#222222"/>
<rect x="-2" y="7" width="53" height="2" fill="black"/>
<rect x="-0.5" y="36.5" width="51" height="1" fill="black" stroke="black"/>
</g>
<defs>
<clipPath id="clip0_414_3">
<rect width="47" height="51" fill="white" transform="matrix(0 -1 1 0 0 47)"/>
</clipPath>
</defs>
</svg>
